<svg xmlns="http://www.w3.org/2000/svg" version="1.1" xmlns:xlink="http://www.w3.org/1999/xlink" xmlns:svgjs="http://svgjs.dev/svgjs" width="2000" height="1999" viewBox="0 0 2000 1999"><g transform="matrix(1,0,0,1,-0.431486880466764,-0.4312711370263287)"><svg viewBox="0 0 343 343" data-background-color="#ffffff" preserveAspectRatio="xMidYMid meet" height="1999" width="2000" xmlns="http://www.w3.org/2000/svg" xmlns:xlink="http://www.w3.org/1999/xlink"><g id="tight-bounds" transform="matrix(1,0,0,1,0.0740000000000407,0.07400000000001228)"><svg viewBox="0 0 342.85155851775386 342.85155851775386" height="342.85155851775386" width="342.85155851775386"><g><svg></svg></g><g><svg viewBox="0 0 342.85155851775386 342.85155851775386" height="342.85155851775386" width="342.85155851775386"><g><path d="M0 171.426c0-94.676 76.75-171.426 171.426-171.426 94.676 0 171.426 76.75 171.426 171.426 0 94.676-76.75 171.426-171.426 171.426-94.676 0-171.426-76.75-171.426-171.426zM171.426 331.929c88.643 0 160.503-71.86 160.503-160.503 0-88.643-71.86-160.503-160.503-160.503-88.643 0-160.503 71.86-160.503 160.503 0 88.643 71.86 160.503 160.503 160.503z" data-fill-palette-color="tertiary" fill="#233565" stroke="transparent"></path><ellipse rx="164.56874808852186" ry="164.56874808852186" cx="171.42577925887693" cy="171.42577925887693" fill="#233565" stroke="transparent" stroke-width="0" fill-opacity="1" data-fill-palette-color="tertiary"></ellipse></g><g transform="matrix(1,0,0,1,64.84655864529837,110.86461119592678)"><svg viewBox="0 0 213.1584412271571 121.1223361259003" height="121.1223361259003" width="213.1584412271571"><g><svg viewBox="0 0 213.1584412271571 121.1223361259003" height="121.1223361259003" width="213.1584412271571"><g><svg viewBox="0 0 213.1584412271571 121.1223361259003" height="121.1223361259003" width="213.1584412271571"><g><svg viewBox="0 0 213.1584412271571 121.1223361259003" height="121.1223361259003" width="213.1584412271571"><g id="textblocktransform"><svg viewBox="0 0 213.1584412271571 121.1223361259003" height="121.1223361259003" width="213.1584412271571" id="textblock"><g><svg viewBox="0 0 213.1584412271571 121.1223361259003" height="121.1223361259003" width="213.1584412271571"><g transform="matrix(1,0,0,1,0,0)"><svg width="213.1584412271571" viewBox="0.925 -39.05 68.72160194174758 39.05" height="121.1223361259003" data-palette-color="#ffffff"><path d="M2.85 0L2.85 0Q1.7 0 1.2-0.95 0.7-1.9 1.1-2.8L1.1-2.8 15.8-37.7Q16.35-39.05 17.7-39.05L17.7-39.05Q19-39.05 19.55-37.7L19.55-37.7 34.3-2.75Q34.75-1.8 34.18-0.9 33.6 0 32.55 0L32.55 0Q31.95 0 31.48-0.3 31-0.6 30.7-1.2L30.7-1.2 16.95-34.55 18.5-34.55 4.65-1.2Q4.4-0.6 3.93-0.3 3.45 0 2.85 0ZM29.45-9.3L6.15-9.3 7.65-12.65 27.95-12.65 29.45-9.3ZM38 0L38 0Q36.85 0 36.35-0.95 35.85-1.9 36.25-2.8L36.25-2.8 50.95-37.7Q51.5-39.05 52.85-39.05L52.85-39.05Q54.15-39.05 54.7-37.7L54.7-37.7 69.45-2.75Q69.9-1.8 69.32-0.9 68.75 0 67.7 0L67.7 0Q67.1 0 66.62-0.3 66.15-0.6 65.85-1.2L65.85-1.2 52.1-34.55 53.65-34.55 39.8-1.2Q39.55-0.6 39.07-0.3 38.6 0 38 0ZM64.6-9.3L41.3-9.3 42.8-12.65 63.1-12.65 64.6-9.3Z" opacity="1" transform="matrix(1,0,0,1,0,0)" fill="#ffffff" class="wordmark-text-0" data-fill-palette-color="quaternary" id="text-0"></path></svg></g></svg></g></svg></g></svg></g></svg></g></svg></g></svg></g></svg></g><defs></defs></svg><rect width="342.85155851775386" height="342.85155851775386" fill="none" stroke="none" visibility="hidden"></rect></g></svg></g></svg>